PathFileType	4	(X/Y/Z)	../Python\walking\Walking19\task.trc
DataRate	CameraRate	NumFrames	NumMarkers	Units	OrigDataRate	OrigDataStartFrame	OrigNumFrames
200.000000	200.000000	7	30	mm	200.000000	356	571
Frame#	Time	RBAK			CLAV			STRN			RASI			LASI			PE01			RTH1			RTH2			RTH3			RTB2			RTB3			RD5M			RTOE			LTH3			LTB2			LTB3			LHEE			LTOE			LD5M			RHEE			LTH1			LTH2			C7			RTB1			LPSI			PE03			PE02			RPSI			T10			LTB1			
		X1	Y1	Z1	X2	Y2	Z2	X3	Y3	Z3	X4	Y4	Z4	X5	Y5	Z5	X6	Y6	Z6	X7	Y7	Z7	X8	Y8	Z8	X9	Y9	Z9	X10	Y10	Z10	X11	Y11	Z11	X12	Y12	Z12	X13	Y13	Z13	X14	Y14	Z14	X15	Y15	Z15	X16	Y16	Z16	X17	Y17	Z17	X18	Y18	Z18	X19	Y19	Z19	X20	Y20	Z20	X21	Y21	Z21	X22	Y22	Z22	X23	Y23	Z23	X24	Y24	Z24	X25	Y25	Z25	X26	Y26	Z26	X27	Y27	Z27	X28	Y28	Z28	X29	Y29	Z29	X30	Y30	Z30	

357	1.78	670.738952636719	1234.46728515625	276.5383300781251	822.9028320312505	1234.644897460938	134.4801330566407	891.6457519531255	1053.565673828125	144.3260803222657	852.3969726562505	841.477905273438	294.0230102539064	864.7197875976567	856.6945800781255	67.24690246582034	665.8633422851565	929.938110351563	187.6149139404297	714.818054199219	563.3922119140627	319.3908996582032	713.821960449219	485.0345458984377	303.2620544433595	753.241149902344	532.610534667969	307.421844482422	529.810241699219	295.0086364746095	289.2315979003907	530.8752441406252	245.5473175048829	278.0364074707032	418.8377685546877	32.8932228088379	260.597381591797	448.6367492675784	30.06518363952638	210.9650268554689	945.1147460937505	607.572692871094	43.82310867309572	944.8297729492192	205.8501434326173	67.83643341064456	980.3081054687505	238.8473510742189	76.34794616699222	918.552124023438	34.77388763427736	124.8609085083008	1110.07958984375	31.76264762878419	134.5140686035157	1069.789916992188	16.27207756042481	82.78961181640628	354.8393554687501	166.8885955810547	200.314178466797	896.4851684570317	606.6876220703127	31.39920234680177	892.6161499023442	546.9893188476565	45.32615280151369	695.2459716796877	1324.256225585938	153.9050598144532	591.7592773437502	296.6194152832032	287.8546752929689	660.3820800781252	893.111206054688	143.785385131836	650.5067138671877	874.3398437500005	152.7558898925782	646.504577636719	867.987426757813	202.6563415527345	660.175720214844	894.3623657226567	232.1235198974611	676.7300415039065	1026.963012695313	187.2664947509766	943.6824340820317	284.8551635742189	55.62775802612308	
358	1.785	677.3983154296877	1235.494384765625	276.2476196289064	829.811401367188	1235.836181640625	134.424301147461	898.6026000976567	1054.746826171875	144.233627319336	859.1168823242192	842.1452636718755	293.354949951172	871.6539916992192	857.9594726562505	66.70726013183597	672.515319824219	930.8322143554692	187.4568939208985	724.7122192382815	562.6941528320315	319.4578247070314	724.9551391601565	484.2043151855471	303.7148742675782	763.6228637695315	532.4246215820315	307.6486816406251	539.9246826171877	296.4595336914064	288.9973449707032	540.5064086914065	246.9629516601564	278.1738891601564	421.2742614746096	35.52382659912111	259.4852600097657	450.441589355469	31.18015670776369	210.3938598632814	950.680053710938	607.4160156250002	43.0231399536133	946.8154296875005	205.9554138183595	67.56192779541018	982.6613159179692	238.6305236816407	76.15663909912112	918.6789550781255	34.83200073242189	124.8856506347657	1110.303100585938	31.61254310607912	134.5875091552735	1069.860595703125	16.25883293151856	82.58238220214847	365.3568725585939	172.6501922607422	198.9936065673829	902.0712890625005	607.1695556640627	30.75203704833986	897.6038208007817	547.4952392578127	44.79799652099611	702.0839843750002	1325.3076171875	153.6625976562501	601.8907470703127	297.2871093750001	288.3614196777345	667.3238525390627	894.2811889648442	143.317123413086	657.3784179687502	875.2796020507817	152.4193115234376	653.4778442382815	868.7112426757817	202.3306884765626	667.1060180664065	895.048461914063	231.8377838134767	683.6655883789065	1027.991821289063	186.8559112548829	946.5495605468755	284.9398498535157	55.25372314453128	
359	1.79	683.9913330078127	1236.541748046875	275.948455810547	836.6914672851567	1237.058227539063	134.4159240722657	905.515502929688	1055.947875976563	144.1981506347657	865.7595214843755	842.8632812500005	292.7128295898439	878.5393676757817	859.1933593750005	66.18804931640628	679.0935668945315	931.7463378906255	187.2290954589844	734.6649169921877	562.0238037109377	319.5646362304689	736.1516113281252	483.4246520996096	304.2032165527345	774.0620117187505	532.282653808594	307.9329223632814	550.3999023437502	297.8459777832032	288.8047180175782	550.5085449218752	248.3369903564454	278.3099975585939	424.1651611328127	38.45886230468751	258.3455200195314	452.7479553222659	32.53796386718751	209.8270874023439	955.8953247070317	607.0533447265627	42.16117477416994	948.5625610351567	206.0364379882814	67.35384368896487	984.7853393554692	238.3947601318361	75.93924713134768	918.7692871093755	34.85728454589845	124.9167861938477	1110.469482421875	31.53603935241701	134.6652069091797	1069.916748046875	16.28807640075684	82.42787933349612	376.3406066894532	178.363998413086	197.7307281494142	907.3207397460942	607.534118652344	30.08650970458986	902.1898803710942	547.8905029296877	44.29394149780275	708.8967895507815	1326.401733398438	153.4358673095704	612.3579711914065	297.9281005859376	288.8715209960939	674.2125244140627	895.4700317382817	142.797836303711	664.1812744140627	876.2293090820317	152.0351867675782	660.3690185546877	869.4703979492192	201.956512451172	673.9431762695315	895.7621459960942	231.4815826416017	690.5510864257815	1029.054565429688	186.3891296386719	949.1274414062505	284.9865112304689	54.95510482788089	
360	1.795	690.5162353515627	1237.60546875	275.6403198242189	843.5414428710942	1238.30615234375	134.4556579589844	912.3825683593755	1057.163818359375	144.2214965820313	872.3250122070317	843.6290893554692	292.1003723144532	885.3746948242192	860.3915405273442	65.69108581542972	685.5981445312502	932.6798706054692	186.933334350586	744.6575317382815	561.4019165039065	319.7082519531251	747.3795166015627	482.7217102050784	304.7200012207032	784.534545898438	532.2022705078127	308.272430419922	561.2175292968752	299.1734008789064	288.6578063964845	560.8633422851565	249.6758117675782	278.4383850097657	427.5884094238284	41.69313430786134	257.2176208496095	455.6464843750002	34.13362884521486	209.2987518310548	960.7788085937505	606.5283813476565	41.2543296813965	950.0871582031255	206.0997619628907	67.2043380737305	986.6930541992192	238.1456146240236	75.69332122802737	918.826782226563	34.85810470581056	124.9521484375001	1110.587158203125	31.50955009460451	134.7412261962891	1069.9599609375	16.34089469909669	82.31911468505862	387.7288208007815	183.993148803711	196.5270996093751	912.253295898438	607.7994384765627	29.40685462951662	906.408325195313	548.1918945312502	43.80899810791017	715.6829833984377	1327.534545898438	153.2251739501954	623.1451416015627	298.5503234863282	289.3759765625001	681.0457763671877	896.675903320313	142.2295379638672	670.9141845703127	877.189331054688	151.6036071777344	667.1759033203127	870.2643432617192	201.533660888672	680.6850585937502	896.502563476563	231.0556182861329	697.3852539062502	1030.148315429688	185.8681030273438	951.4326782226567	285.0051574707032	54.72166824340823	
361	1.8	696.9717407226565	1238.682006835938	275.3228149414064	850.3598022460942	1239.575561523438	134.5438385009766	919.2021484375005	1058.390258789063	144.3048553466797	878.8139038085942	844.440063476563	291.5207824707032	892.1592407226567	861.5507812500005	65.21791839599612	692.0300903320315	933.6325683593755	186.5724792480469	754.6744384765627	560.8484497070315	319.8852539062501	758.613464355469	482.1196899414065	305.2589721679689	795.020385742188	532.2010498046877	308.663787841797	572.3560180664065	300.4501037597657	288.5585021972657	571.5496826171877	250.9879913330079	278.5521240234376	431.6270446777346	45.20764923095705	256.1460571289064	459.2312622070315	35.95217895507814	208.8463897705079	965.3555297851567	605.8880615234377	40.31576156616212	951.4081420898442	206.1508636474611	67.10289001464847	988.3992309570317	237.8884887695314	75.41712188720706	918.8559570312505	34.84224700927736	124.9897232055665	1110.664916992188	31.51354789733888	134.8106994628907	1069.9921875	16.40217971801759	82.24808502197268	399.4534606933596	189.494125366211	195.3780364990236	916.8934936523442	607.9861450195315	28.71744537353517	910.2994995117192	548.4191894531252	43.33863067626955	722.4414062500002	1328.702392578125	153.0307006835938	634.234069824219	299.163787841797	289.8655700683595	687.821960449219	897.897094726563	141.6150665283204	677.5765380859377	878.1605834960942	151.1255645751954	673.897155761719	871.0928344726567	201.0628967285157	687.3306274414065	897.2692871093755	230.5617218017579	704.1673583984377	1031.27001953125	185.2953491210938	953.4849243164067	285.0042419433595	54.54082870483401	
362	1.805	703.3572387695315	1239.767944335938	274.9956359863282	857.145141601563	1240.862060546875	134.6805419921876	925.9728393554692	1059.623168945313	144.4488220214844	885.2273559570317	845.293823242188	290.9767456054689	898.8925781250005	862.6688842773442	64.76978302001956	698.3914794921877	934.6043090820317	186.1503143310547	764.703308105469	560.381530761719	320.0919494628907	769.8349609375005	481.6395263671877	305.814666748047	805.504028320313	532.295593261719	309.1024169921876	583.7910156250002	301.6868286132814	288.5061645507814	582.544372558594	252.2838134765626	278.6441040039064	436.3670349121096	48.96807479858401	255.1776428222657	463.597351074219	37.96913528442384	208.5089263916017	969.656127929688	605.180358886719	39.35585021972658	952.546508789063	206.1942901611329	67.03717041015628	989.920288085938	237.6286163330079	75.1099548339844	918.861694335938	34.81666183471681	125.027702331543	1110.711059570313	31.53257369995119	134.8700714111329	1070.015380859375	16.46049880981446	82.20642852783206	411.4420471191409	194.8172607421876	194.2739868164064	921.2702026367192	608.1162109375002	28.02289199829103	913.9084472656255	548.5939941406252	42.87878799438478	729.1709594726565	1329.901245117188	152.8526458740235	645.604675292969	299.780242919922	290.3311767578126	694.5396118164065	899.1320800781255	140.9578552246094	684.1685791015627	879.143920898438	150.6029357910157	680.5325317382815	871.955444335938	200.5458984375001	693.8801269531252	898.061889648438	230.0028381347657	710.8967895507815	1032.416748046875	184.6738739013672	955.3059082031255	284.9910583496095	54.39873886108401	
363	1.81	709.672546386719	1240.860229492188	274.6587524414064	863.8962402343755	1242.161499023438	134.8655395507813	932.6935424804692	1060.858520507813	144.6533813476563	891.567260742188	846.1882324218755	290.4702758789064	905.574829101563	863.7451782226567	64.34759521484378	704.685485839844	935.5949096679692	185.671371459961	774.7351074218755	560.0168457031252	320.3240661621095	781.033081054688	481.2980041503909	306.3823242187501	815.9747924804692	532.5007324218752	309.582489013672	595.496032714844	302.8964843750001	288.4973754882814	593.8225097656252	253.5745086669923	278.707733154297	441.8950195312502	52.92449951171878	254.3585357666017	468.8373718261721	40.1517677307129	208.3241729736329	973.7158813476567	604.4519653320315	38.38363647460939	953.5242309570317	206.2338409423829	66.99410247802737	991.2734985351567	237.3708343505861	74.77230072021487	918.8490600585942	34.78732299804689	125.0644683837891	1110.733642578125	31.55503463745119	134.9169464111329	1070.031372070313	16.50779724121094	82.18597412109378	423.620300292969	199.9083557128907	193.2023925781251	925.415649414063	608.2117919921877	27.32813072204591	917.2828979492192	548.7387695312502	42.42586135864259	735.8707275390627	1331.12744140625	152.6911010742188	657.2351684570315	300.4126892089845	290.7644348144532	701.1977539062502	900.379272460938	140.2619781494141	690.6909790039065	880.140502929688	150.0383453369141	687.0825805664065	872.8518676757817	199.9851684570314	700.3348388671877	898.8803100585942	229.3828277587892	717.573425292969	1033.585815429688	184.0070953369141	956.9188842773442	284.9717712402345	54.28149414062503	
